<?xml version="1.0" encoding="UTF-8"?>
<svg width="149px" height="22px" viewBox="0 0 149 22" version="1.1" xmlns="http://www.w3.org/2000/svg" xmlns:xlink="http://www.w3.org/1999/xlink">
    <title>Group</title>
    <g id="Scenario-7" stroke="none" stroke-width="1" fill="none" fill-rule="evenodd">
        <g id="Desktop-/-Scenario-7-/-Screen-3" transform="translate(-111.000000, -656.000000)">
            <g id="Group" transform="translate(111.000000, 656.000000)">
                <g id="ri-mental-health-fill" fill="#683E84">
                    <g id="Icon">
                        <path d="M8,0 C12.0183217,0.000261992837 15.4132552,2.9805635 15.934,6.965 L18.184,10.504 C18.332,10.737 18.302,11.084 17.959,11.232 L16,12.07 L16,15 C16,16.1045695 15.1045695,17 14,17 L12.001,17 L12,20 L3,20 L3,16.306 C3,15.126 2.564,14.009 1.756,13.001 C-0.166885123,10.6001054 -0.542916678,7.30935756 0.788774635,4.53656467 C2.12046595,1.76377179 4.92399901,0 8,0 Z M7.47,5.763 C7.03071141,5.30798807 6.38009273,5.12540925 5.76820941,5.28543775 C5.15632609,5.44546625 4.67840129,5.92319796 4.51812552,6.53501656 C4.35784976,7.14683515 4.54016564,7.79752757 4.995,8.237 L8,11.243 L11.005,8.237 C11.4598344,7.79752757 11.6421502,7.14683515 11.4818745,6.53501656 C11.3215987,5.92319796 10.8436739,5.44546625 10.2317906,5.28543775 C9.61990727,5.12540925 8.96928859,5.30798807 8.53,5.763 L8,6.293 L7.47,5.763 L7.47,5.763 Z" id="Icon-Shape"></path>
                    </g>
                </g>
                <path d="M24.34375,17 L25.75,13.3671875 L30.328125,13.3671875 L31.75,17 L33.125,17 L28.6328125,5.53125 L27.515625,5.53125 L23,17 L24.34375,17 Z M29.9140625,12.171875 L26.21875,12.171875 L27.5625,8.6328125 C27.7760417,8.03385417 27.9401042,7.484375 28.0546875,6.984375 C28.2369792,7.63541667 28.4140625,8.18489583 28.5859375,8.6328125 L28.5859375,8.6328125 L29.9140625,12.171875 Z M35.796875,17 L35.796875,12.5078125 C35.796875,11.3932292 36.0052083,10.59375 36.421875,10.109375 C36.8385417,9.625 37.4947917,9.3828125 38.390625,9.3828125 C39.0677083,9.3828125 39.5651042,9.5546875 39.8828125,9.8984375 C40.2005208,10.2421875 40.359375,10.7630208 40.359375,11.4609375 L40.359375,11.4609375 L40.359375,17 L41.65625,17 L41.65625,11.4140625 C41.65625,10.3203125 41.3958333,9.52473958 40.875,9.02734375 C40.3541667,8.52994792 39.578125,8.28125 38.546875,8.28125 C37.9583333,8.28125 37.4244792,8.39713542 36.9453125,8.62890625 C36.4661458,8.86067708 36.09375,9.1875 35.828125,9.609375 L35.828125,9.609375 L35.765625,9.609375 L35.5546875,8.4375 L34.5,8.4375 L34.5,17 L35.796875,17 Z M44.2421875,20.84375 C44.9505208,20.84375 45.5481771,20.6419271 46.0351562,20.2382812 C46.5221354,19.8346354 46.9479167,19.1510417 47.3125,18.1875 L47.3125,18.1875 L50.9921875,8.4375 L49.6015625,8.4375 C48.4036458,11.75 47.6966146,13.7278646 47.4804688,14.3710938 C47.2643229,15.0143229 47.1223958,15.46875 47.0546875,15.734375 L47.0546875,15.734375 L46.9921875,15.734375 C46.8932292,15.2395833 46.6380208,14.4348958 46.2265625,13.3203125 L46.2265625,13.3203125 L44.3515625,8.4375 L42.9609375,8.4375 L46.4140625,17.046875 L45.9375,18.265625 C45.5572917,19.265625 44.921875,19.765625 44.03125,19.765625 C43.6770833,19.765625 43.3567708,19.734375 43.0703125,19.671875 L43.0703125,19.671875 L43.0703125,20.7109375 C43.4557292,20.7994792 43.8463542,20.84375 44.2421875,20.84375 Z M56.4140625,17 L60.53125,5.578125 L59.1015625,5.578125 L56.4921875,12.921875 C56.1901042,13.7604167 55.9453125,14.6015625 55.7578125,15.4453125 C55.5807292,14.6432292 55.3411458,13.8177083 55.0390625,12.96875 L55.0390625,12.96875 L52.4140625,5.578125 L51.0078125,5.578125 L55.1015625,17 L56.4140625,17 Z M62.5625,6.984375 C62.7708333,6.984375 62.9505208,6.91276042 63.1015625,6.76953125 C63.2526042,6.62630208 63.328125,6.40885417 63.328125,6.1171875 C63.328125,5.82552083 63.2526042,5.609375 63.1015625,5.46875 C62.9505208,5.328125 62.7708333,5.2578125 62.5625,5.2578125 C62.34375,5.2578125 62.1614583,5.32682292 62.015625,5.46484375 C61.8697917,5.60286458 61.796875,5.8203125 61.796875,6.1171875 C61.796875,6.40885417 61.8697917,6.62630208 62.015625,6.76953125 C62.1614583,6.91276042 62.34375,6.984375 62.5625,6.984375 Z M63.203125,17 L63.203125,8.4375 L61.90625,8.4375 L61.90625,17 L63.203125,17 Z M67.25,17 L67.25,12.40625 C67.25,11.5677083 67.4960938,10.8671875 67.9882812,10.3046875 C68.4804688,9.7421875 69.0729167,9.4609375 69.765625,9.4609375 C70.0364583,9.4609375 70.3489583,9.5 70.703125,9.578125 L70.703125,9.578125 L70.8828125,8.375 C70.5807292,8.3125 70.2395833,8.28125 69.859375,8.28125 C69.3229167,8.28125 68.8307292,8.43229167 68.3828125,8.734375 C67.9348958,9.03645833 67.5520833,9.46614583 67.234375,10.0234375 L67.234375,10.0234375 L67.171875,10.0234375 L67.0234375,8.4375 L65.953125,8.4375 L65.953125,17 L67.25,17 Z M75.0625,17.15625 C75.28125,17.15625 75.5273438,17.1341146 75.8007812,17.0898438 C76.0742188,17.0455729 76.28125,16.9895833 76.421875,16.921875 L76.421875,16.921875 L76.421875,15.9296875 C76.296875,15.9661458 76.1276042,16.0013021 75.9140625,16.0351562 C75.7005208,16.0690104 75.4791667,16.0859375 75.25,16.0859375 C74.8229167,16.0859375 74.4869792,15.9479167 74.2421875,15.671875 C73.9973958,15.3958333 73.875,15 73.875,14.484375 L73.875,14.484375 L73.875,9.4453125 L76.359375,9.4453125 L76.359375,8.4375 L73.875,8.4375 L73.875,6.453125 L73.125,6.453125 L72.578125,8.28125 L71.3515625,8.8203125 L71.3515625,9.4453125 L72.578125,9.4453125 L72.578125,14.5390625 C72.578125,16.2838542 73.40625,17.15625 75.0625,17.15625 Z M81.15625,17.15625 C81.7604167,17.15625 82.2981771,17.0442708 82.7695312,16.8203125 C83.2408854,16.5963542 83.609375,16.2734375 83.875,15.8515625 L83.875,15.8515625 L83.9453125,15.8515625 L84.1328125,17 L85.203125,17 L85.203125,8.4375 L83.90625,8.4375 L83.90625,12.9375 C83.90625,14.046875 83.6992188,14.8463542 83.2851562,15.3359375 C82.8710938,15.8255208 82.2161458,16.0703125 81.3203125,16.0703125 C80.6432292,16.0703125 80.1458333,15.8984375 79.828125,15.5546875 C79.5104167,15.2109375 79.3515625,14.6901042 79.3515625,13.9921875 L79.3515625,13.9921875 L79.3515625,8.4375 L78.0390625,8.4375 L78.0390625,14.0390625 C78.0390625,15.1276042 78.2981771,15.9192708 78.8164062,16.4140625 C79.3346354,16.9088542 80.1145833,17.15625 81.15625,17.15625 Z M90.03125,17.15625 C90.6666667,17.15625 91.1966146,17.0611979 91.6210938,16.8710938 C92.0455729,16.6809896 92.4713542,16.3177083 92.8984375,15.78125 L92.8984375,15.78125 L92.9609375,15.78125 L93.21875,17 L94.1796875,17 L94.1796875,11.15625 C94.1796875,10.15625 93.9335938,9.4296875 93.4414062,8.9765625 C92.9492188,8.5234375 92.1927083,8.296875 91.171875,8.296875 C90.6666667,8.296875 90.1627604,8.36197917 89.6601562,8.4921875 C89.1575521,8.62239583 88.6953125,8.80208333 88.2734375,9.03125 L88.2734375,9.03125 L88.671875,10.0234375 C89.5729167,9.5859375 90.3802083,9.3671875 91.09375,9.3671875 C91.7291667,9.3671875 92.1914062,9.52734375 92.4804688,9.84765625 C92.7695312,10.1679688 92.9140625,10.6640625 92.9140625,11.3359375 L92.9140625,11.3359375 L92.9140625,11.8671875 L91.4609375,11.9140625 C88.6953125,11.9973958 87.3125,12.9036458 87.3125,14.6328125 C87.3125,15.4401042 87.5533854,16.0625 88.0351562,16.5 C88.5169271,16.9375 89.1822917,17.15625 90.03125,17.15625 Z M90.2890625,16.0859375 C89.7786458,16.0859375 89.3815104,15.9635417 89.0976562,15.71875 C88.8138021,15.4739583 88.671875,15.1171875 88.671875,14.6484375 C88.671875,14.0494792 88.8997396,13.6080729 89.3554688,13.3242188 C89.8111979,13.0403646 90.5546875,12.8802083 91.5859375,12.84375 L91.5859375,12.84375 L92.8828125,12.7890625 L92.8828125,13.5625 C92.8828125,14.359375 92.6523438,14.9791667 92.1914062,15.421875 C91.7304688,15.8645833 91.0963542,16.0859375 90.2890625,16.0859375 Z M98.1484375,17 L98.1484375,4.84375 L96.8515625,4.84375 L96.8515625,17 L98.1484375,17 Z M102.421875,17 L102.421875,11.625 L108.4375,11.625 L108.4375,17 L109.765625,17 L109.765625,5.578125 L108.4375,5.578125 L108.4375,10.4375 L102.421875,10.4375 L102.421875,5.578125 L101.09375,5.578125 L101.09375,17 L102.421875,17 Z M116.320312,17.15625 C116.898438,17.15625 117.391927,17.1132812 117.800781,17.0273438 C118.209635,16.9414062 118.643229,16.7994792 119.101562,16.6015625 L119.101562,16.6015625 L119.101562,15.4453125 C118.200521,15.8307292 117.289062,16.0234375 116.367188,16.0234375 C115.492188,16.0234375 114.813802,15.7630208 114.332031,15.2421875 C113.85026,14.7213542 113.596354,13.9583333 113.570312,12.953125 L113.570312,12.953125 L119.46875,12.953125 L119.46875,12.1328125 C119.46875,10.9765625 119.15625,10.0455729 118.53125,9.33984375 C117.90625,8.63411458 117.057292,8.28125 115.984375,8.28125 C114.838542,8.28125 113.925781,8.6875 113.246094,9.5 C112.566406,10.3125 112.226562,11.4088542 112.226562,12.7890625 C112.226562,14.1588542 112.592448,15.2291667 113.324219,16 C114.05599,16.7708333 115.054688,17.15625 116.320312,17.15625 Z M118.078125,11.8984375 L113.601562,11.8984375 C113.674479,11.1067708 113.915365,10.4869792 114.324219,10.0390625 C114.733073,9.59114583 115.28125,9.3671875 115.96875,9.3671875 C116.645833,9.3671875 117.166667,9.58463542 117.53125,10.0195312 C117.895833,10.4544271 118.078125,11.0807292 118.078125,11.8984375 L118.078125,11.8984375 Z M123.757812,17.15625 C124.393229,17.15625 124.923177,17.0611979 125.347656,16.8710938 C125.772135,16.6809896 126.197917,16.3177083 126.625,15.78125 L126.625,15.78125 L126.6875,15.78125 L126.945312,17 L127.90625,17 L127.90625,11.15625 C127.90625,10.15625 127.660156,9.4296875 127.167969,8.9765625 C126.675781,8.5234375 125.919271,8.296875 124.898438,8.296875 C124.393229,8.296875 123.889323,8.36197917 123.386719,8.4921875 C122.884115,8.62239583 122.421875,8.80208333 122,9.03125 L122,9.03125 L122.398438,10.0234375 C123.299479,9.5859375 124.106771,9.3671875 124.820312,9.3671875 C125.455729,9.3671875 125.917969,9.52734375 126.207031,9.84765625 C126.496094,10.1679688 126.640625,10.6640625 126.640625,11.3359375 L126.640625,11.3359375 L126.640625,11.8671875 L125.1875,11.9140625 C122.421875,11.9973958 121.039062,12.9036458 121.039062,14.6328125 C121.039062,15.4401042 121.279948,16.0625 121.761719,16.5 C122.24349,16.9375 122.908854,17.15625 123.757812,17.15625 Z M124.015625,16.0859375 C123.505208,16.0859375 123.108073,15.9635417 122.824219,15.71875 C122.540365,15.4739583 122.398438,15.1171875 122.398438,14.6484375 C122.398438,14.0494792 122.626302,13.6080729 123.082031,13.3242188 C123.53776,13.0403646 124.28125,12.8802083 125.3125,12.84375 L125.3125,12.84375 L126.609375,12.7890625 L126.609375,13.5625 C126.609375,14.359375 126.378906,14.9791667 125.917969,15.421875 C125.457031,15.8645833 124.822917,16.0859375 124.015625,16.0859375 Z M131.875,17 L131.875,4.84375 L130.578125,4.84375 L130.578125,17 L131.875,17 Z M137.203125,17.15625 C137.421875,17.15625 137.667969,17.1341146 137.941406,17.0898438 C138.214844,17.0455729 138.421875,16.9895833 138.5625,16.921875 L138.5625,16.921875 L138.5625,15.9296875 C138.4375,15.9661458 138.268229,16.0013021 138.054688,16.0351562 C137.841146,16.0690104 137.619792,16.0859375 137.390625,16.0859375 C136.963542,16.0859375 136.627604,15.9479167 136.382812,15.671875 C136.138021,15.3958333 136.015625,15 136.015625,14.484375 L136.015625,14.484375 L136.015625,9.4453125 L138.5,9.4453125 L138.5,8.4375 L136.015625,8.4375 L136.015625,6.453125 L135.265625,6.453125 L134.71875,8.28125 L133.492188,8.8203125 L133.492188,9.4453125 L134.71875,9.4453125 L134.71875,14.5390625 C134.71875,16.2838542 135.546875,17.15625 137.203125,17.15625 Z M141.570312,17 L141.570312,12.5234375 C141.570312,11.4088542 141.777344,10.6067708 142.191406,10.1171875 C142.605469,9.62760417 143.263021,9.3828125 144.164062,9.3828125 C144.841146,9.3828125 145.338542,9.5546875 145.65625,9.8984375 C145.973958,10.2421875 146.132812,10.7630208 146.132812,11.4609375 L146.132812,11.4609375 L146.132812,17 L147.429688,17 L147.429688,11.4140625 C147.429688,10.3307292 147.167969,9.54036458 146.644531,9.04296875 C146.121094,8.54557292 145.335938,8.296875 144.289062,8.296875 C143.684896,8.296875 143.147135,8.41536458 142.675781,8.65234375 C142.204427,8.88932292 141.841146,9.21354167 141.585938,9.625 L141.585938,9.625 L141.507812,9.625 C141.549479,9.33333333 141.570312,8.96614583 141.570312,8.5234375 L141.570312,8.5234375 L141.570312,4.84375 L140.273438,4.84375 L140.273438,17 L141.570312,17 Z" id="AnyVirtualHealth" fill="#4A4A4A" fill-rule="nonzero"></path>
            </g>
        </g>
    </g>
</svg>