<?xml version="1.0" encoding="UTF-8"?>
<svg width="196px" height="32px" viewBox="0 0 196 32" version="1.1" xmlns="http://www.w3.org/2000/svg" xmlns:xlink="http://www.w3.org/1999/xlink">
    <title>logo/white/v2</title>
    <defs>
        <polygon id="path-1" points="0 6.20689655 205.734375 6.20689655 205.734375 38.7931034 0 38.7931034"></polygon>
    </defs>
    <g id="Stylesheet" stroke="none" stroke-width="1" fill="none" fill-rule="evenodd">
        <g id="BXFinance/Style-Sheet" transform="translate(-101.000000, -306.000000)">
            <g id="logo/white/v2" transform="translate(101.000000, 299.000000)">
                <mask id="mask-2" fill="white">
                    <use xlink:href="#path-1"></use>
                </mask>
                <g id="Clip-1-Copy"></g>
                <path d="M60.7283695,34.137931 C65.5649503,34.137931 68.8004561,31.5949488 68.8004561,27.7135548 C68.8004561,25.0701916 67.0659581,22.493749 63.630318,22.0587652 C66.4989107,21.2222579 67.699717,19.1142594 67.699717,16.9393404 C67.699717,13.0579464 64.3307883,10.7157259 59.6943418,10.7157259 L52.2560141,10.7157259 C51.3554094,10.7157259 50.8550735,11.2176303 50.8550735,12.1210582 L50.8550735,32.7325987 C50.8550735,33.6360266 51.3554094,34.137931 52.2560141,34.137931 L60.7283695,34.137931 Z M58.4601799,20.8207344 L55.2580298,20.8207344 L55.2580298,14.2625169 L59.4942075,14.2625169 C61.5956184,14.2625169 63.2967607,15.3667066 63.2967607,17.3743242 C63.2967607,19.1142594 61.9291757,20.8207344 58.4601799,20.8207344 Z M60.6283023,30.5242194 L55.2580298,30.5242194 L55.2580298,23.8656211 L59.2273616,23.8656211 C62.8631362,23.8656211 64.3974997,25.6390166 64.3974997,27.4458724 C64.3974997,29.2527282 62.8964919,30.5242194 60.6283023,30.5242194 Z" id="B" fill="#FFFFFF" fill-rule="nonzero" mask="url(#mask-2)"></path>
                <path d="M73.4786396,34.137931 C74.1457542,34.137931 74.6127345,33.9371693 75.0463589,33.3683443 L81.4173033,25.2040328 L87.7882477,33.3683443 C88.1885164,33.9371693 88.6554967,34.137931 89.3226112,34.137931 L91.6575123,34.137931 C92.7248957,34.137931 93.058453,33.4352649 92.4246941,32.531837 L84.0190502,21.7241623 L91.5240894,12.3218199 C92.1578483,11.4518523 91.7909352,10.7157259 90.7235519,10.7157259 L88.5220737,10.7157259 C87.8549591,10.7157259 87.3879789,10.9164876 86.9543544,11.4853126 L81.4173033,18.4785139 L75.8468965,11.4853126 C75.413272,10.9164876 74.9462918,10.7157259 74.2791772,10.7157259 L72.077699,10.7157259 C71.0103156,10.7157259 70.6434026,11.4518523 71.3105172,12.3218199 L78.7822007,21.7241623 L70.3765568,32.531837 C69.7094422,33.4352649 70.0763552,34.137931 71.1437386,34.137931 L73.4786396,34.137931 Z" id="X" fill="#FFFFFF" fill-rule="nonzero" mask="url(#mask-2)"></path>
                <path d="M97.5823693,34.137931 C97.9492824,34.137931 98.1494168,33.903709 98.1494168,33.5691061 L98.1494168,23.7317799 L111.391641,23.7317799 L111.391641,33.5691061 C111.391641,33.9371693 111.591776,34.137931 111.925333,34.137931 L112.592448,34.137931 C112.926005,34.137931 113.126139,33.9371693 113.126139,33.5691061 L113.126139,11.2845508 C113.126139,10.9164876 112.892649,10.7157259 112.592448,10.7157259 L111.925333,10.7157259 C111.591776,10.7157259 111.391641,10.9499479 111.391641,11.2845508 L111.391641,22.259527 L98.1494168,22.259527 L98.1494168,11.2845508 C98.1494168,10.9164876 97.9159266,10.7157259 97.5823693,10.7157259 L96.9486105,10.7157259 C96.6150532,10.7157259 96.4149188,10.9164876 96.4149188,11.2845508 L96.4149188,33.5691061 C96.4149188,33.9371693 96.6150532,34.137931 96.9486105,34.137931 L97.5823693,34.137931 Z M127.168902,34.5059943 C129.303668,34.5059943 131.638569,33.9706296 133.573202,32.2306943 C133.906759,31.9295517 133.906759,31.6284091 133.673269,31.3607267 L133.439779,31.0930444 C133.206289,30.825362 132.906087,30.825362 132.672597,31.0261238 C131.00481,32.4649164 129.036822,33.0002811 127.202257,33.0002811 C122.599167,33.0002811 119.263594,29.6877121 119.663862,25.4047945 L134.407095,25.4047945 C134.774008,25.4047945 134.974142,25.2040328 134.940787,24.8359696 C134.540518,19.4823227 130.77132,17.1401021 126.801989,17.1401021 C121.665206,17.1401021 117.929364,21.0884167 117.929364,25.8732386 C117.929364,30.6246003 121.531783,34.5059943 127.168902,34.5059943 Z M133.206289,24.0663828 L119.830641,24.0663828 C120.664534,20.7872741 123.43306,18.6458153 126.835344,18.6458153 C129.703937,18.6458153 132.605886,20.1515285 133.206289,24.0663828 Z M145.647976,34.5059943 C148.783414,34.5059943 151.385161,32.9668208 152.752746,30.0892356 L152.752746,33.5691061 C152.752746,33.9371693 152.952881,34.137931 153.286438,34.137931 L153.886841,34.137931 C154.253754,34.137931 154.453888,33.903709 154.453888,33.5691061 L154.453888,18.0769903 C154.453888,17.7089271 154.253754,17.5081654 153.886841,17.5081654 L153.286438,17.5081654 C152.952881,17.5081654 152.752746,17.7423874 152.752746,18.0769903 L152.752746,21.5568608 C151.418517,18.7796565 148.883482,17.1401021 145.581264,17.1401021 C140.344415,17.1401021 137.242332,21.0884167 137.242332,25.8063181 C137.242332,30.6580606 140.511193,34.5059943 145.647976,34.5059943 Z M145.781399,33.0002811 C141.511865,33.0002811 138.943474,29.7880929 138.943474,25.8063181 C138.943474,21.9249241 141.411798,18.6792756 145.748043,18.6792756 C149.984221,18.6792756 152.786102,21.7910829 152.786102,25.8063181 C152.786102,30.0557753 149.817442,33.0002811 145.781399,33.0002811 Z M161.39188,34.137931 C161.758793,34.137931 161.958928,33.903709 161.958928,33.5691061 L161.958928,10.5149641 C161.958928,10.1469009 161.758793,9.94613912 161.39188,9.94613912 L160.791477,9.94613912 C160.45792,9.94613912 160.257785,10.1803612 160.257785,10.5149641 L160.257785,33.5691061 C160.257785,33.9371693 160.45792,34.137931 160.791477,34.137931 L161.39188,34.137931 Z M173.03303,34.5059943 C175.834911,34.5059943 177.40263,32.766059 177.40263,30.5242194 C177.40263,30.5242194 177.40263,30.1226959 177.302563,29.6542518 C177.269208,29.45349 177.069073,29.3531091 176.868939,29.3531091 L176.101757,29.3531091 C175.834911,29.3531091 175.734844,29.4869503 175.801555,29.7546326 C175.868267,30.022315 175.868267,30.3234576 175.868267,30.3569179 C175.868267,31.9295517 174.700816,33.0002811 173.066386,33.0002811 C171.598734,33.0002811 170.097726,32.2976149 170.097726,29.1188871 L170.097726,18.9134977 L175.201152,18.9134977 C175.467998,18.9134977 175.568065,18.7796565 175.568065,18.5454344 L175.568065,17.8762286 C175.568065,17.6420065 175.467998,17.5081654 175.201152,17.5081654 L170.097726,17.5081654 L170.097726,12.6898832 C170.097726,12.3887405 169.930947,12.2214391 169.59739,12.2214391 L169.297188,12.2214391 C169.030342,12.2214391 168.830208,12.3887405 168.796852,12.6898832 L168.429939,17.5081654 L165.861548,17.5081654 C165.628058,17.5081654 165.494635,17.6420065 165.494635,17.8762286 L165.494635,18.5454344 C165.494635,18.7796565 165.628058,18.9134977 165.861548,18.9134977 L168.429939,18.9134977 L168.429939,29.0185062 C168.429939,33.5021855 170.76484,34.5059943 173.03303,34.5059943 Z M181.772231,34.137931 C182.139144,34.137931 182.339278,33.9371693 182.339278,33.5691061 L182.339278,25.6390166 C182.439346,20.1180682 186.341966,18.6792756 188.309954,18.6792756 C190.84499,18.6792756 193.546804,19.9842271 193.546804,24.6017475 L193.546804,33.5691061 C193.546804,33.9371693 193.746938,34.137931 194.080495,34.137931 L194.680898,34.137931 C195.047811,34.137931 195.247946,33.903709 195.247946,33.5691061 L195.247946,24.6017475 C195.247946,18.946958 191.845661,17.1401021 188.376666,17.1401021 C186.241899,17.1401021 183.473373,18.3112124 182.339278,21.2891785 L182.339278,10.5149641 C182.339278,10.1469009 182.139144,9.94613912 181.772231,9.94613912 L181.205184,9.94613912 C180.838271,9.94613912 180.638136,10.1803612 180.638136,10.5149641 L180.638136,33.5691061 C180.638136,33.9371693 180.838271,34.137931 181.205184,34.137931 L181.772231,34.137931 Z" id="Health" fill="#FFFFFF" fill-rule="nonzero" mask="url(#mask-2)"></path>
                <path d="M0.0433973746,18.3449862 L2.84126613,27.9422063 C2.94303443,28.2901093 3.22403645,28.5552513 3.57642817,28.6318819 L14.3091864,33.9914282 C14.6904378,34.0741893 15.313199,34.3791792 15.3906644,34.7653975 L18.0548674,37.9961449 C18.1460032,38.4605265 18.8766084,38.7931034 19.3444388,38.7931034 L20.6932485,38.7931034 C21.1610789,38.7931034 21.5635953,38.4605265 21.65625,37.9961449 L21.4527134,34.4128966 C21.4891677,34.2274505 21.4724595,34.0343413 21.4041076,33.8580909 L19.5965811,25.3153083 C19.4993696,25.067025 19.3064655,24.8677854 19.0619178,24.7635677 L14.9851102,23.0317155 C14.0616008,22.6393667 13.2170758,23.7305869 13.8170531,24.5398063 L14.0251465,24.8187418 C14.533988,25.502287 14.0023626,26.4724308 13.1578376,26.400398 L7.48463464,23.8102827 C7.24464372,23.7903587 7.02136104,23.3520315 6.85427876,23.1757811 L1.69599304,17.3825055 C0.986652802,16.6284601 -0.246718224,17.3472554 0.0433973746,18.3449862" id="Fill-2-Copy" fill="#FFFFFF" fill-rule="evenodd" mask="url(#mask-2)"></path>
                <path d="M44.8159776,18.3449862 L42.0181089,27.9422063 C41.9163406,28.2901093 41.6353386,28.5552513 41.2844658,28.6318819 L30.5517075,33.9914282 C30.1689372,34.0741893 29.546176,34.3791792 29.4687106,34.7653975 L26.8045076,37.9961449 C26.7133718,38.4605265 25.9842855,38.7931034 25.5149362,38.7931034 L24.1661265,38.7931034 C23.6982961,38.7931034 23.2957797,38.4605265 23.203125,37.9961449 L23.4066616,34.4128966 C23.3702073,34.2274505 23.3869155,34.0343413 23.4552674,33.8580909 L25.2627939,25.3153083 C25.3600054,25.067025 25.5529095,24.8677854 25.7974572,24.7635677 L29.8742648,23.0317155 C30.7977742,22.6393667 31.6422992,23.7305869 31.0423219,24.5398063 L30.8342285,24.8187418 C30.325387,25.502287 30.8570124,26.4724308 31.7015374,26.400398 L37.3747404,23.8102827 C37.6147313,23.7903587 37.838014,23.3520315 38.0050962,23.1757811 L43.163382,17.3825055 C43.8727222,16.6284601 45.1060932,17.3472554 44.8159776,18.3449862" id="Fill-3-Copy" fill="#FFFFFF" fill-rule="evenodd" mask="url(#mask-2)"></path>
                <path d="M25.9403633,7.75862069 C24.6139755,7.75862069 23.3962385,8.77082744 22.4296687,9.56213825 C21.4645099,8.77082744 20.2467729,7.75862069 18.9203851,7.75862069 C18.7637585,7.75862069 18.6085429,7.76421299 18.4547383,7.77819375 C14.5136732,8.10953767 12.5946439,12.7679257 14.9454547,15.91779 L22.4296687,23.2758621 L29.9138826,15.91779 C32.2646934,12.7679257 30.3456642,8.10953767 26.4060101,7.77819375 C26.2522056,7.76421299 26.09699,7.75862069 25.9403633,7.75862069" id="Fill-4-Copy" fill="#DF5F4F" fill-rule="evenodd" mask="url(#mask-2)"></path>
            </g>
        </g>
    </g>
</svg>