<?xml version="1.0" encoding="UTF-8"?>
<svg width="196px" height="31px" viewBox="0 0 196 31" version="1.1" xmlns="http://www.w3.org/2000/svg" xmlns:xlink="http://www.w3.org/1999/xlink">
    <title>logo/dark/v2</title>
    <defs>
        <polygon id="path-1" points="0 4.60714286 205.734375 4.60714286 205.734375 36.8571429 0 36.8571429"></polygon>
    </defs>
    <g id="Stylesheet" stroke="none" stroke-width="1" fill="none" fill-rule="evenodd">
        <g id="BXFinance/Style-Sheet" transform="translate(-99.000000, -245.000000)">
            <g id="logo/dark/v2" transform="translate(99.000000, 239.000000)">
                <mask id="mask-2" fill="white">
                    <use xlink:href="#path-1"></use>
                </mask>
                <g id="Clip-1"></g>
                <path d="M60.7283695,32.25 C65.5649503,32.25 68.8004561,29.7332548 68.8004561,25.891907 C68.8004561,23.2758166 67.0659581,20.7259564 63.630318,20.2954605 C66.4989107,19.4675838 67.699717,17.3813345 67.699717,15.2288551 C67.699717,11.3875072 64.3307883,9.0694525 59.6943418,9.0694525 L52.2560141,9.0694525 C51.3554094,9.0694525 50.8550735,9.56617852 50.8550735,10.4602854 L50.8550735,30.8591672 C50.8550735,31.753274 51.3554094,32.25 52.2560141,32.25 L60.7283695,32.25 Z M58.4601799,19.070203 L55.2580298,19.070203 L55.2580298,12.5796497 L59.4942075,12.5796497 C61.5956184,12.5796497 63.2967607,13.6724469 63.2967607,15.659351 C63.2967607,17.3813345 61.9291757,19.070203 58.4601799,19.070203 Z M60.6283023,28.6735727 L55.2580298,28.6735727 L55.2580298,22.0836742 L59.2273616,22.0836742 C62.8631362,22.0836742 64.3974997,23.8387728 64.3974997,25.6269864 C64.3974997,27.4152001 62.8964919,28.6735727 60.6283023,28.6735727 Z" id="B" fill="#163657" fill-rule="nonzero" mask="url(#mask-2)"></path>
                <path d="M73.4786396,32.25 C74.1457542,32.25 74.6127345,32.0513096 75.0463589,31.4883534 L81.4173033,23.4082769 L87.7882477,31.4883534 C88.1885164,32.0513096 88.6554967,32.25 89.3226112,32.25 L91.6575123,32.25 C92.7248957,32.25 93.058453,31.5545836 92.4246941,30.6604767 L84.0190502,19.9643098 L91.5240894,10.6589758 C92.1578483,9.79798399 91.7909352,9.0694525 90.7235519,9.0694525 L88.5220737,9.0694525 C87.8549591,9.0694525 87.3879789,9.26814291 86.9543544,9.83109906 L81.4173033,16.7521482 L75.8468965,9.83109906 C75.413272,9.26814291 74.9462918,9.0694525 74.2791772,9.0694525 L72.077699,9.0694525 C71.0103156,9.0694525 70.6434026,9.79798399 71.3105172,10.6589758 L78.7822007,19.9643098 L70.3765568,30.6604767 C69.7094422,31.5545836 70.0763552,32.25 71.1437386,32.25 L73.4786396,32.25 Z" id="X" fill="#163657" fill-rule="nonzero" mask="url(#mask-2)"></path>
                <path d="M97.5823693,32.25 C97.9492824,32.25 98.1494168,32.0181945 98.1494168,31.6870438 L98.1494168,21.9512139 L111.391641,21.9512139 L111.391641,31.6870438 C111.391641,32.0513096 111.591776,32.25 111.925333,32.25 L112.592448,32.25 C112.926005,32.25 113.126139,32.0513096 113.126139,31.6870438 L113.126139,9.63240865 C113.126139,9.26814291 112.892649,9.0694525 112.592448,9.0694525 L111.925333,9.0694525 C111.591776,9.0694525 111.391641,9.30125797 111.391641,9.63240865 L111.391641,20.4941509 L98.1494168,20.4941509 L98.1494168,9.63240865 C98.1494168,9.26814291 97.9159266,9.0694525 97.5823693,9.0694525 L96.9486105,9.0694525 C96.6150532,9.0694525 96.4149188,9.26814291 96.4149188,9.63240865 L96.4149188,31.6870438 C96.4149188,32.0513096 96.6150532,32.25 96.9486105,32.25 L97.5823693,32.25 Z M127.168902,32.6142657 C129.303668,32.6142657 131.638569,32.0844247 133.573202,30.3624411 C133.906759,30.0644055 133.906759,29.7663699 133.673269,29.5014494 L133.439779,29.2365288 C133.206289,28.9716083 132.906087,28.9716083 132.672597,29.1702987 C131.00481,30.5942466 129.036822,31.1240877 127.202257,31.1240877 C122.599167,31.1240877 119.263594,27.845696 119.663862,23.6069673 L134.407095,23.6069673 C134.774008,23.6069673 134.974142,23.4082769 134.940787,23.0440111 C134.540518,17.7456003 130.77132,15.4275455 126.801989,15.4275455 C121.665206,15.4275455 117.929364,19.3351235 117.929364,24.0705782 C117.929364,28.7729179 121.531783,32.6142657 127.168902,32.6142657 Z M133.206289,22.2823646 L119.830641,22.2823646 C120.664534,19.0370879 123.43306,16.9177236 126.835344,16.9177236 C129.703937,16.9177236 132.605886,18.4079016 133.206289,22.2823646 Z M145.647976,32.6142657 C148.783414,32.6142657 151.385161,31.0909726 152.752746,28.2430768 L152.752746,31.6870438 C152.752746,32.0513096 152.952881,32.25 153.286438,32.25 L153.886841,32.25 C154.253754,32.25 154.453888,32.0181945 154.453888,31.6870438 L154.453888,16.3547674 C154.453888,15.9905017 154.253754,15.7918113 153.886841,15.7918113 L153.286438,15.7918113 C152.952881,15.7918113 152.752746,16.0236167 152.752746,16.3547674 L152.752746,19.7987345 C151.418517,17.0501839 148.883482,15.4275455 145.581264,15.4275455 C140.344415,15.4275455 137.242332,19.3351235 137.242332,24.0043481 C137.242332,28.8060329 140.511193,32.6142657 145.647976,32.6142657 Z M145.781399,31.1240877 C141.511865,31.1240877 138.943474,27.9450412 138.943474,24.0043481 C138.943474,20.1630002 141.411798,16.9508387 145.748043,16.9508387 C149.984221,16.9508387 152.786102,20.03054 152.786102,24.0043481 C152.786102,28.2099617 149.817442,31.1240877 145.781399,31.1240877 Z M161.39188,32.25 C161.758793,32.25 161.958928,32.0181945 161.958928,31.6870438 L161.958928,8.87076209 C161.958928,8.50649635 161.758793,8.30780594 161.39188,8.30780594 L160.791477,8.30780594 C160.45792,8.30780594 160.257785,8.53961141 160.257785,8.87076209 L160.257785,31.6870438 C160.257785,32.0513096 160.45792,32.25 160.791477,32.25 L161.39188,32.25 Z M173.03303,32.6142657 C175.834911,32.6142657 177.40263,30.8922822 177.40263,28.6735727 C177.40263,28.6735727 177.40263,28.2761919 177.302563,27.8125809 C177.269208,27.6138905 177.069073,27.5145453 176.868939,27.5145453 L176.101757,27.5145453 C175.834911,27.5145453 175.734844,27.6470056 175.801555,27.9119261 C175.868267,28.1768467 175.868267,28.4748823 175.868267,28.5079973 C175.868267,30.0644055 174.700816,31.1240877 173.066386,31.1240877 C171.598734,31.1240877 170.097726,30.4286713 170.097726,27.2827398 L170.097726,17.1826441 L175.201152,17.1826441 C175.467998,17.1826441 175.568065,17.0501839 175.568065,16.8183784 L175.568065,16.156077 C175.568065,15.9242715 175.467998,15.7918113 175.201152,15.7918113 L170.097726,15.7918113 L170.097726,11.0232415 C170.097726,10.7252059 169.930947,10.5596306 169.59739,10.5596306 L169.297188,10.5596306 C169.030342,10.5596306 168.830208,10.7252059 168.796852,11.0232415 L168.429939,15.7918113 L165.861548,15.7918113 C165.628058,15.7918113 165.494635,15.9242715 165.494635,16.156077 L165.494635,16.8183784 C165.494635,17.0501839 165.628058,17.1826441 165.861548,17.1826441 L168.429939,17.1826441 L168.429939,27.1833946 C168.429939,31.6208137 170.76484,32.6142657 173.03303,32.6142657 Z M181.772231,32.25 C182.139144,32.25 182.339278,32.0513096 182.339278,31.6870438 L182.339278,23.8387728 C182.439346,18.3747866 186.341966,16.9508387 188.309954,16.9508387 C190.84499,16.9508387 193.546804,18.2423263 193.546804,22.8122057 L193.546804,31.6870438 C193.546804,32.0513096 193.746938,32.25 194.080495,32.25 L194.680898,32.25 C195.047811,32.25 195.247946,32.0181945 195.247946,31.6870438 L195.247946,22.8122057 C195.247946,17.2157592 191.845661,15.4275455 188.376666,15.4275455 C186.241899,15.4275455 183.473373,16.5865729 182.339278,19.5338139 L182.339278,8.87076209 C182.339278,8.50649635 182.139144,8.30780594 181.772231,8.30780594 L181.205184,8.30780594 C180.838271,8.30780594 180.638136,8.53961141 180.638136,8.87076209 L180.638136,31.6870438 C180.638136,32.0513096 180.838271,32.25 181.205184,32.25 L181.772231,32.25 Z" id="Health" fill="#163657" fill-rule="nonzero" mask="url(#mask-2)"></path>
                <path d="M0.0433973746,16.6199982 L2.84126613,26.1181994 C2.94303443,26.462513 3.22403645,26.7249194 3.57642817,26.8007593 L14.3091864,32.1050087 C14.6904378,32.1869159 15.313199,32.4887591 15.3906644,32.8709927 L18.0548674,36.0684069 C18.1460032,36.5279973 18.8766084,36.8571429 19.3444388,36.8571429 L20.6932485,36.8571429 C21.1610789,36.8571429 21.5635953,36.5279973 21.65625,36.0684069 L21.4527134,32.5221287 C21.4891677,32.3385959 21.4724595,32.1474791 21.4041076,31.9730471 L19.5965811,23.5184043 C19.4993696,23.2726827 19.3064655,23.0754987 19.0619178,22.9723563 L14.9851102,21.2583724 C14.0616008,20.8700716 13.2170758,21.9500332 13.8170531,22.7509035 L14.0251465,23.0269611 C14.533988,23.7034539 14.0023626,24.6635883 13.1578376,24.5922987 L7.48463464,22.0289068 C7.24464372,22.0091884 7.02136104,21.5753836 6.85427876,21.4009516 L1.69599304,15.6674479 C0.986652802,14.9211823 -0.246718224,15.6325615 0.0433973746,16.6199982" id="Fill-2" fill="#163657" fill-rule="evenodd" mask="url(#mask-2)"></path>
                <path d="M44.8159776,16.6199982 L42.0181089,26.1181994 C41.9163406,26.462513 41.6353386,26.7249194 41.2844658,26.8007593 L30.5517075,32.1050087 C30.1689372,32.1869159 29.546176,32.4887591 29.4687106,32.8709927 L26.8045076,36.0684069 C26.7133718,36.5279973 25.9842855,36.8571429 25.5149362,36.8571429 L24.1661265,36.8571429 C23.6982961,36.8571429 23.2957797,36.5279973 23.203125,36.0684069 L23.4066616,32.5221287 C23.3702073,32.3385959 23.3869155,32.1474791 23.4552674,31.9730471 L25.2627939,23.5184043 C25.3600054,23.2726827 25.5529095,23.0754987 25.7974572,22.9723563 L29.8742648,21.2583724 C30.7977742,20.8700716 31.6422992,21.9500332 31.0423219,22.7509035 L30.8342285,23.0269611 C30.325387,23.7034539 30.8570124,24.6635883 31.7015374,24.5922987 L37.3747404,22.0289068 C37.6147313,22.0091884 37.838014,21.5753836 38.0050962,21.4009516 L43.163382,15.6674479 C43.8727222,14.9211823 45.1060932,15.6325615 44.8159776,16.6199982" id="Fill-3" fill="#163657" fill-rule="evenodd" mask="url(#mask-2)"></path>
                <path d="M25.9403633,6.14285714 C24.6139755,6.14285714 23.3962385,7.14462049 22.4296687,7.92776698 C21.4645099,7.14462049 20.2467729,6.14285714 18.9203851,6.14285714 C18.7637585,6.14285714 18.6085429,6.14839175 18.4547383,6.16222826 C14.5136732,6.49015355 12.5946439,11.1004788 14.9454547,14.2178446 L22.4296687,21.5 L29.9138826,14.2178446 C32.2646934,11.1004788 30.3456642,6.49015355 26.4060101,6.16222826 C26.2522056,6.14839175 26.09699,6.14285714 25.9403633,6.14285714" id="Fill-4" fill="#DF5F4F" fill-rule="evenodd" mask="url(#mask-2)"></path>
            </g>
        </g>
    </g>
</svg>