<?xml version="1.0" encoding="utf-8"?>
<!-- Generator: Adobe Illustrator 24.2.0, SVG Export Plug-In . SVG Version: 6.00 Build 0)  -->
<svg version="1.1" id="Layer_1" xmlns="http://www.w3.org/2000/svg" xmlns:xlink="http://www.w3.org/1999/xlink" x="0px" y="0px"
	 viewBox="0 0 20 19" style="enable-background:new 0 0 20 19;" xml:space="preserve">
<style type="text/css">
	.st0{fill:#163657;}
</style>
<g id="Scenario-2">
	<g id="Desktop-_x2F_-Scenario-2-_x2F_-End-Screen" transform="translate(-915.000000, -827.000000)">
		<g id="Brief-Case" transform="translate(915.000000, 827.000000)">
			<path id="Combined-Shape" class="st0" d="M10,0c3,0,4.7,1.8,5,5L17,5c1.7,0,3,1.3,3,3l0,0v8c0,1.7-1.3,3-3,3l0,0H3
				c-1.7,0-3-1.3-3-3l0,0V8c0-1.7,1.3-3,3-3l0,0l2,0C5.3,1.8,7,0,10,0z M18,8.5l-7.6,3.4C10.2,12,9.9,12,9.7,12l-0.1,0L2,8.5V16
				c0,0.5,0.4,0.9,0.9,1L3,17h14c0.6,0,1-0.4,1-1l0,0V8.5z M16.5,7H3.5L10,9.9L16.5,7z M10,2C8.2,2,7.3,2.9,7.1,5l5.9,0
				C12.7,2.9,11.8,2,10,2z"/>
		</g>
	</g>
</g>
</svg>
