<?xml version="1.0" encoding="utf-8"?>
<!-- Generator: Adobe Illustrator 24.2.0, SVG Export Plug-In . SVG Version: 6.00 Build 0)  -->
<svg version="1.1" id="Layer_1" xmlns="http://www.w3.org/2000/svg" xmlns:xlink="http://www.w3.org/1999/xlink" x="0px" y="0px"
	 viewBox="0 0 36 39" style="enable-background:new 0 0 36 39;" xml:space="preserve">
<style type="text/css">
	.st0{fill:#163657;}
	.st1{fill-rule:evenodd;clip-rule:evenodd;fill:#163657;}
</style>
<g id="Scenario-7">
	<g id="Desktop-_x2F_-Scenario-7-_x2F_-Screen-3" transform="translate(-646.000000, -412.000000)">
		<g id="Calendar" transform="translate(646.000000, 412.000000)">
			<g id="Group-4">
				<g id="Group-7">
					<path id="Rectangle" class="st0" d="M32.5,3.5h-29C1.6,3.5,0,5,0,6.9v27.6C0,36.5,1.6,38,3.5,38h29c1.9,0,3.5-1.5,3.5-3.5V6.9
						C36,5,34.4,3.5,32.5,3.5z M31.4,8.1v25.3H4.6V8.1H31.4z"/>
					<polygon id="Path-13" class="st0" points="11.6,0 11.6,5.3 8.1,5.3 8.1,0 					"/>
					<polygon id="Path-13-Copy" class="st0" points="27.8,0 27.8,5.3 24.3,5.3 24.3,0 					"/>
				</g>
				<g id="Group-3" transform="translate(9.290323, 0.000000)">
				</g>
			</g>
			<path id="Rectangle_1_" class="st1" d="M21,21h5c1.1,0,2,0.9,2,2v6c0,1.1-0.9,2-2,2h-5c-1.1,0-2-0.9-2-2v-6
				C19,21.9,19.9,21,21,21z"/>
			<path id="Rectangle-Copy" class="st1" d="M7,11h21c0.6,0,1,0.4,1,1v2c0,0.6-0.4,1-1,1H7c-0.6,0-1-0.4-1-1v-2C6,11.4,6.4,11,7,11z
				"/>
		</g>
	</g>
</g>
</svg>
