<?xml version="1.0" encoding="utf-8"?>
<!-- Generator: Adobe Illustrator 24.2.0, SVG Export Plug-In . SVG Version: 6.00 Build 0)  -->
<svg version="1.1" id="Layer_1" xmlns="http://www.w3.org/2000/svg" xmlns:xlink="http://www.w3.org/1999/xlink" x="0px" y="0px"
	 viewBox="0 0 54 50" style="enable-background:new 0 0 54 50;" xml:space="preserve">
<style type="text/css">
	.st0{fill:#163657;}
	.st1{fill:none;}
</style>
<g id="Scenario-5">
	<g id="Desktop-_x2F_-Scenario-5-_x2F_-Screen-5" transform="translate(-561.000000, -413.000000)">
		<g id="Comment" transform="translate(561.000000, 413.000000)">
			<g id="Icon" transform="translate(3.000000, 4.000000)">
				<path id="Icon-Shape" class="st0" d="M27.2,17c-1.2,0-2.2,0.9-2.2,2s0.9,2,2.2,2c1.1,0,2.1-0.9,2.1-2S28.3,17,27.2,17z M12.5,17
					c-1.2,0-2.2,0.9-2.2,2s0.9,2,2.2,2c1.1,0,2.1-0.9,2.1-2S13.6,17,12.5,17z"/>
				<path id="Icon-Shape_1_" class="st0" d="M44.1,13.2c-2.5-3.2-6.1-5.4-10-6.4v0c-0.9-0.9-1.9-1.8-3.1-2.6
					c-8.6-5.9-20.8-4.1-27.1,4C-1,14.8-0.8,23.6,4.4,29.9l0,6.5c0,0.2,0,0.3,0.1,0.5c0.3,0.8,1.2,1.3,2.1,1l6.7-2
					c1.8,0.6,3.6,0.9,5.4,1l0,0c4.7,3.2,10.9,4.2,16.5,2.4l6.7,2c0.2,0,0.3,0.1,0.5,0.1c0.9,0,1.7-0.7,1.7-1.6v-6.6
					C48.7,27.4,48.9,19.3,44.1,13.2z M14,32.4l-0.6-0.2l-5.2,1.5l-0.1-5.1l-0.4-0.4c-4.5-5.1-4.8-12.4-0.6-17.8
					C12.2,3.9,22,2.4,28.9,7.1c7,4.7,8.5,13.8,3.5,20.3C28.2,32.8,20.6,34.8,14,32.4z M40.7,31.6l-0.4,0.5l0.1,5.1l-5.2-1.6
					l-0.6,0.2c-3,1-6.1,1.1-9,0.3l0,0c3.9-1.1,7.4-3.4,10-6.6c4-5.2,4.7-11.7,2.3-17.2l0,0c1.2,0.8,2.3,1.8,3.3,3.1
					C44.9,20.3,44.7,26.9,40.7,31.6z"/>
				<path id="Icon-Path" class="st0" d="M19.8,17c-1.2,0-2.2,0.9-2.2,2s0.9,2,2.2,2c1.1,0,2.1-0.9,2.1-2S20.9,17,19.8,17z"/>
			</g>
			<rect id="ViewBox" class="st1" width="54" height="50"/>
		</g>
	</g>
</g>
</svg>
