<?xml version="1.0" encoding="utf-8"?>
<!-- Generator: Adobe Illustrator 24.2.0, SVG Export Plug-In . SVG Version: 6.00 Build 0)  -->
<svg version="1.1" id="Layer_1" xmlns="http://www.w3.org/2000/svg" xmlns:xlink="http://www.w3.org/1999/xlink" x="0px" y="0px"
	 viewBox="0 0 24 24" style="enable-background:new 0 0 24 24;" xml:space="preserve">
<style type="text/css">
	.st0{fill:#163657;}
</style>
<g id="Scenario-2">
	<g id="Desktop-_x2F_-Scenario-2-_x2F_-End-Screen" transform="translate(-1150.000000, -824.000000)">
		<g id="Gear" transform="translate(1150.000000, 824.000000)">
			<path id="Icon-Shape" class="st0" d="M3.3,17c-0.4-0.7-0.8-1.5-1-2.3C3.4,14.2,4,13.1,4,12c0-1.1-0.6-2.2-1.6-2.7
				C2.8,7.7,3.7,6.2,4.9,5C5.8,5.6,7,5.6,8,5.1s1.6-1.6,1.5-2.8c1.6-0.4,3.4-0.4,5,0C14.4,3.4,15,4.5,16,5.1s2.2,0.5,3.1-0.1
				c0.6,0.6,1.1,1.3,1.5,2c0.4,0.7,0.8,1.5,1,2.3c-1,0.5-1.6,1.5-1.6,2.7s0.6,2.2,1.6,2.7c-0.5,1.6-1.3,3.1-2.5,4.3
				c-0.9-0.6-2.2-0.6-3.1-0.1s-1.6,1.6-1.5,2.8c-1.6,0.4-3.4,0.4-5,0C9.6,20.6,9,19.5,8,18.9S5.8,18.4,4.9,19
				C4.3,18.4,3.8,17.7,3.3,17L3.3,17z M9,17.2c1.1,0.6,1.9,1.6,2.2,2.8c0.5,0,1,0,1.5,0c0.4-1.2,1.2-2.2,2.3-2.8
				c1.1-0.6,2.3-0.8,3.5-0.6c0.3-0.4,0.5-0.8,0.7-1.3C18.5,14.4,18,13.2,18,12c0-1.3,0.5-2.4,1.3-3.3c-0.2-0.5-0.5-0.9-0.8-1.3
				c-1.2,0.3-2.5,0.1-3.5-0.6c-1.1-0.6-1.9-1.6-2.2-2.8c-0.5,0-1,0-1.5,0C10.9,5.2,10.1,6.2,9,6.8C7.9,7.4,6.7,7.6,5.5,7.4
				C5.2,7.8,4.9,8.2,4.7,8.7C5.5,9.6,6,10.8,6,12c0,1.2-0.5,2.4-1.3,3.3c0.2,0.5,0.5,0.9,0.8,1.3C6.7,16.4,7.9,16.6,9,17.2z M12,15
				c-1.7,0-3-1.3-3-3s1.3-3,3-3s3,1.3,3,3S13.7,15,12,15z M12,13c0.6,0,1-0.4,1-1s-0.4-1-1-1s-1,0.4-1,1S11.4,13,12,13z"/>
		</g>
	</g>
</g>
</svg>
