<?xml version="1.0" encoding="utf-8"?>
<!-- Generator: Adobe Illustrator 24.2.0, SVG Export Plug-In . SVG Version: 6.00 Build 0)  -->
<svg version="1.1" id="Layer_1" xmlns="http://www.w3.org/2000/svg" xmlns:xlink="http://www.w3.org/1999/xlink" x="0px" y="0px"
	 viewBox="0 0 71 51" style="enable-background:new 0 0 71 51;" xml:space="preserve">
<style type="text/css">
	.st0{fill-rule:evenodd;clip-rule:evenodd;fill:#163657;}
	.st1{fill-rule:evenodd;clip-rule:evenodd;fill:#DF5F4F;}
</style>
<g id="Scenario-4">
	<g id="Desktop-_x2F_-Scenario-4-_x2F_-Screen-3-" transform="translate(-664.000000, -706.000000)">
		<g id="Group-2" transform="translate(594.000000, 316.000000)">
			<g id="Hand-Mark" transform="translate(70.000000, 124.000000)">
				<g transform="translate(0.500000, 266.000000)">
					<path id="Fill-2" class="st0" d="M0.1,19l4.4,15c0.2,0.5,0.6,1,1.2,1.1l16.9,8.4c0.6,0.1,1.6,0.6,1.7,1.2l4.2,5.1
						c0.1,0.7,1.3,1.2,2,1.2h2.1c0.7,0,1.4-0.5,1.5-1.2l-0.3-5.6c0.1-0.3,0-0.6-0.1-0.9l-2.8-13.4c-0.2-0.4-0.5-0.7-0.8-0.9
						l-6.4-2.7c-1.4-0.6-2.8,1.1-1.8,2.4l0.3,0.4c0.8,1.1,0,2.6-1.4,2.5l-8.9-4.1c-0.4,0-0.7-0.7-1-1l-8.1-9.1
						C1.5,16.3-0.4,17.4,0.1,19"/>
					<path id="Fill-3" class="st0" d="M69.9,19l-4.3,15c-0.2,0.5-0.6,1-1.1,1.1l-16.4,8.4c-0.6,0.1-1.5,0.6-1.7,1.2l-4.1,5.1
						c-0.1,0.7-1.2,1.2-2,1.2h-2.1c-0.7,0-1.3-0.5-1.5-1.2l0.3-5.6c-0.1-0.3,0-0.6,0.1-0.9l2.8-13.4c0.1-0.4,0.4-0.7,0.8-0.9
						l6.2-2.7c1.4-0.6,2.7,1.1,1.8,2.4l-0.3,0.4c-0.8,1.1,0,2.6,1.3,2.5l8.6-4.1c0.4,0,0.7-0.7,1-1l7.9-9.1
						C68.5,16.3,70.4,17.4,69.9,19"/>
					<path id="Fill-4" class="st1" d="M40.5,0c-2.3,0-4.3,1.8-6,3.1c-1.6-1.4-3.7-3.1-6-3.1c-0.3,0-0.5,0-0.8,0
						c-6.7,0.6-10,8.7-6,14.2L34.5,27l12.8-12.8c4-5.5,0.7-13.6-6-14.2C41,0,40.8,0,40.5,0"/>
				</g>
			</g>
		</g>
	</g>
</g>
</svg>
