<?xml version="1.0" encoding="utf-8"?>
<!-- Generator: Adobe Illustrator 24.2.0, SVG Export Plug-In . SVG Version: 6.00 Build 0)  -->
<svg version="1.1" id="Layer_1" xmlns="http://www.w3.org/2000/svg" xmlns:xlink="http://www.w3.org/1999/xlink" x="0px" y="0px"
	 viewBox="0 0 42 42" style="enable-background:new 0 0 42 42;" xml:space="preserve">
<style type="text/css">
	.st0{fill:#163657;}
</style>
<g id="Scenario-7">
	<g id="Desktop-_x2F_-Scenario-7-_x2F_-Screen-3" transform="translate(-916.000000, -410.000000)">
		<g id="Larger-Sethescope" transform="translate(916.000000, 410.000000)">
			<path id="Combined-Shape" class="st0" d="M9.3,0c1.3,0,2.3,1,2.3,2.3c0,1.2-0.9,2.1-2.1,2.2l-0.3,0H4.7v8.9c0,1.7,1,3.3,2.6,4.1
				l0.4,0.1l4.9,1.8c1,0.4,2,0.4,3,0.1l0.4-0.1l4.4-1.7c1.6-0.6,2.7-2.1,2.9-3.8l0-0.4v-9h-4.6c-1.2,0-2.2-0.9-2.3-2l0-0.3
				c0-1.2,0.9-2.1,2.1-2.2l0.3,0H28v13.5c0,3.5-2.1,6.7-5.4,8.2l-0.5,0.2l-4.4,1.7c-0.4,0.1-0.8,0.3-1.2,0.4l0,6.7
				c0,3.7,3.1,6.8,7,6.8c2.6,0,5-1.4,6.2-3.6c-1.1-1.2-1.8-2.8-1.8-4.5c0-3.7,3.1-6.8,7-6.8s7,3,7,6.8s-3.1,6.8-7,6.8
				c-0.4,0-0.7,0-1.1-0.1c-2,3.6-6,6-10.4,6c-6.3,0-11.4-4.8-11.6-10.8l0-0.5l0-6.6c-0.2,0-0.4-0.1-0.5-0.1l-0.5-0.2L6,21.9
				c-3.5-1.3-5.8-4.4-6-8l0-0.5V0H9.3z M35,27.1c-1.3,0-2.3,1-2.3,2.3c0,1.2,1,2.3,2.3,2.3s2.3-1,2.3-2.3
				C37.3,28.1,36.3,27.1,35,27.1z"/>
		</g>
	</g>
</g>
</svg>
