<?xml version="1.0" encoding="utf-8"?>
<!-- Generator: Adobe Illustrator 24.2.0, SVG Export Plug-In . SVG Version: 6.00 Build 0)  -->
<svg version="1.1" id="Layer_1" xmlns="http://www.w3.org/2000/svg" xmlns:xlink="http://www.w3.org/1999/xlink" x="0px" y="0px"
	 viewBox="0 0 21 21" style="enable-background:new 0 0 21 21;" xml:space="preserve">
<style type="text/css">
	.st0{fill:#f1f3f5;}
</style>
<g id="Scenario-2">
	<g id="Desktop-_x2F_-Scenario-2-_x2F_-End-Screen" transform="translate(-741.000000, -826.000000)">
		<g id="Money" transform="translate(741.000000, 826.000000)">
			<path id="Oval" class="st0" d="M10.5,0C4.7,0,0,4.7,0,10.5S4.7,21,10.5,21S21,16.3,21,10.5S16.3,0,10.5,0z M10.5,2
				c4.7,0,8.5,3.8,8.5,8.5S15.2,19,10.5,19S2,15.2,2,10.5S5.8,2,10.5,2z"/>
			<path id="_x24_" class="st0" d="M11.1,17.3v-1.5c1.7-0.2,3.1-1.2,3.1-3.1c0-1-0.8-2.3-2.7-2.9l-0.5-0.2V6.9
				c0.6,0.1,1,0.5,1.2,1.3L14,7.5l0,0c-0.4-1.3-1.5-2.2-2.9-2.3V3.6h-1v1.6c-1.7,0.2-3,1.2-3,2.9c0,1.1,0.5,2.3,3,3.1V14
				c-0.9-0.1-1.6-0.7-1.7-1.5c-0.6,0.1-1.2,0.3-1.7,0.4c0.3,1.6,1.6,2.7,3.5,2.8v1.5H11.1z M10.1,9.2C9.2,8.8,9,8.4,9,8
				c0-0.7,0.5-1,1.1-1.2V9.2z M11.1,14v-2.4c0.7,0.4,1.2,0.7,1.2,1.3C12.3,13.4,11.8,13.8,11.1,14z"/>
		</g>
	</g>
</g>
</svg>
