<?xml version="1.0" encoding="utf-8"?>
<!-- Generator: Adobe Illustrator 24.2.0, SVG Export Plug-In . SVG Version: 6.00 Build 0)  -->
<svg version="1.1" id="Layer_1" xmlns="http://www.w3.org/2000/svg" xmlns:xlink="http://www.w3.org/1999/xlink" x="0px" y="0px"
	 viewBox="0 0 55.4 37.4" style="enable-background:new 0 0 55.4 37.4;" xml:space="preserve">
<style type="text/css">
	.st0{fill:none;stroke:#163657;stroke-width:3;}
	.st1{fill:none;stroke:#163657;stroke-width:3;stroke-linecap:round;stroke-linejoin:round;}
</style>
<g id="Scenario-1">
	<g id="Desktop-_x2F_-Scenario-1-_x2F_-End-Screen" transform="translate(-905.000000, -485.000000)">
		<g id="RX" transform="translate(905.000000, 488.000000)">
			<g id="Group-3" transform="translate(16.000000, 0.000000)">
				<path id="Path" class="st0" d="M9.8,12L20.3,1.5c4-4,10.5-4,14.5,0s4,10.5,0,14.5L21,29.9c-4,4-10.5,4-14.5,0l-1.2-1.5"/>
				<line id="Path-5" class="st0" x1="13" y1="8.4" x2="27.5" y2="22.9"/>
				<path id="Path-13" class="st1" d="M31.4,3.5c1.8,1,2.6,2.7,2.6,4.9s-0.9,4.1-2.6,5.6"/>
			</g>
			<path id="Combined-Shape" class="st0" d="M16.8,29.6c6.8-1.5,11.2-8.2,9.7-15c-1.5-6.8-8.2-11.2-15-9.7S0.3,13,1.8,19.9
				S9.9,31.1,16.8,29.6z M1.7,19.4l24.7-5.3"/>
		</g>
	</g>
</g>
</svg>
