<?xml version="1.0" encoding="utf-8"?>
<!-- Generator: Adobe Illustrator 24.2.0, SVG Export Plug-In . SVG Version: 6.00 Build 0)  -->
<svg version="1.1" id="Layer_1" xmlns="http://www.w3.org/2000/svg" xmlns:xlink="http://www.w3.org/1999/xlink" x="0px" y="0px"
	 viewBox="0 0 18 18" style="enable-background:new 0 0 18 18;" xml:space="preserve">
<style type="text/css">
	.st0{fill:#163657;}
</style>
<g id="Scenario-2">
	<g id="Desktop-_x2F_-Scenario-2-_x2F_-End-Screen" transform="translate(-544.000000, -827.000000)">
		<g id="Sthescope" transform="translate(544.000000, 827.000000)">
			<path id="Combined-Shape" class="st0" d="M4,0c0.6,0,1,0.4,1,1c0,0.5-0.4,0.9-0.9,1L4,1.9H2v3.8c0,0.7,0.4,1.4,1.1,1.7l0.2,0.1
				l2.1,0.8c0.4,0.2,0.9,0.2,1.3,0l0.2-0.1l1.9-0.7C9.5,7.3,9.9,6.7,10,6l0-0.2V1.9H8c-0.5,0-0.9-0.4-1-0.9L7,1c0-0.5,0.4-0.9,0.9-1
				L8,0h4v5.8c0,1.5-0.9,2.9-2.3,3.5L9.5,9.4l-1.9,0.7c-0.2,0.1-0.3,0.1-0.5,0.2l0,2.9c0,1.6,1.3,2.9,3,2.9c1.1,0,2.2-0.6,2.7-1.5
				C12.3,14,12,13.3,12,12.6c0-1.6,1.3-2.9,3-2.9s3,1.3,3,2.9s-1.3,2.9-3,2.9c-0.2,0-0.3,0-0.5,0C13.7,17,12,18,10.1,18
				c-2.7,0-4.9-2.1-5-4.6l0-0.2l0-2.8c-0.1,0-0.2,0-0.2-0.1l-0.2-0.1L2.6,9.4C1.1,8.8,0.1,7.5,0,6l0-0.2V0H4z M15,11.6
				c-0.6,0-1,0.4-1,1c0,0.5,0.4,1,1,1s1-0.4,1-1C16,12,15.6,11.6,15,11.6z"/>
		</g>
	</g>
</g>
</svg>
