<?xml version="1.0" encoding="utf-8"?>
<!-- Generator: Adobe Illustrator 24.2.0, SVG Export Plug-In . SVG Version: 6.00 Build 0)  -->
<svg version="1.1" id="Layer_1" xmlns="http://www.w3.org/2000/svg" xmlns:xlink="http://www.w3.org/1999/xlink" x="0px" y="0px"
	 viewBox="0 0 35 52" style="enable-background:new 0 0 35 52;" xml:space="preserve">
<style type="text/css">
	.st0{fill:none;stroke:#163657;stroke-width:3;stroke-linejoin:round;}
	.st1{fill:none;stroke:#163657;stroke-width:3;}
	.st2{fill:none;stroke:#163657;stroke-width:3;stroke-linecap:round;}
</style>
<g id="Scenario-1">
	<g id="Desktop-_x2F_-Scenario-1-_x2F_-End-Screen" transform="translate(-644.000000, -483.000000)">
		<g id="Virtual-Visit" transform="translate(646.000000, 485.000000)">
			<g id="Group-8">
				<path id="Rectangle" class="st0" d="M2,0h27c1.1,0,2,0.9,2,2v44c0,1.1-0.9,2-2,2H2c-1.1,0-2-0.9-2-2V2C0,0.9,0.9,0,2,0z"/>
				<circle id="Oval" class="st1" cx="15.5" cy="19.5" r="4.5"/>
				<path id="Path-17" class="st1" d="M5,38.9C5.7,31.6,9.3,28,15.6,28s9.8,3.6,10.4,10.9"/>
				<line id="Path-18" class="st2" x1="18.5" y1="32" x2="18.5" y2="35"/>
				<line id="Path-18_1_" class="st2" x1="20" y1="33.5" x2="17" y2="33.5"/>
				<line id="Path-16-Copy" class="st1" x1="0" y1="39" x2="31" y2="39"/>
				<line id="Path-16" class="st1" x1="0" y1="6" x2="31" y2="6"/>
			</g>
			<g id="Path-19" transform="translate(0.000000, 5.500000)">
			</g>
		</g>
	</g>
</g>
</svg>
